<svg xmlns="http://www.w3.org/2000/svg" xmlns:xlink="http://www.w3.org/1999/xlink" width="500" zoomAndPan="magnify" viewBox="0 0 375 374.999991" height="500" preserveAspectRatio="xMidYMid meet" version="1.0"><defs><g/></defs><rect x="-37.5" width="450" fill="#ffffff" y="-37.499999" height="449.999989" fill-opacity="1"/><rect x="-37.5" width="450" fill="#ffffff" y="-37.499999" height="449.999989" fill-opacity="1"/><g fill="#286181" fill-opacity="1"><g transform="translate(29.597258, 223.15269)"><g><path d="M 4.09375 -47.296875 C 5.46875 -50.054688 7.023438 -52.726562 8.765625 -55.3125 C 10.460938 -57.863281 12.441406 -60.253906 14.703125 -62.484375 C 15.691406 -63.472656 16.664062 -64.390625 17.625 -65.234375 C 23.707031 -70.691406 30.644531 -74.460938 38.4375 -76.546875 C 45.125 -78.347656 51.546875 -78.367188 57.703125 -76.609375 C 60.671875 -75.753906 63.609375 -74.175781 66.515625 -71.875 C 69.421875 -69.570312 71.613281 -67.039062 73.09375 -64.28125 C 74.050781 -62.476562 74.757812 -60.550781 75.21875 -58.5 C 75.644531 -56.445312 75.960938 -54.410156 76.171875 -52.390625 C 76.742188 -45.421875 76.109375 -39.101562 74.265625 -33.4375 C 73.128906 -30.039062 71.484375 -26.734375 69.328125 -23.515625 C 67.128906 -20.265625 64.863281 -17.363281 62.53125 -14.8125 C 59.03125 -10.988281 55.050781 -7.769531 50.59375 -5.15625 C 46.09375 -2.53125 41.242188 -0.953125 36.046875 -0.421875 C 30.804688 0.00390625 25.742188 -0.628906 20.859375 -2.328125 C 17.140625 -3.609375 13.691406 -5.414062 10.515625 -7.75 C 7.296875 -10.050781 4.816406 -13.003906 3.078125 -16.609375 C 1.410156 -20.078125 0.472656 -24.148438 0.265625 -28.828125 C 0.015625 -35.585938 1.289062 -41.742188 4.09375 -47.296875 Z M 24.84375 -35.984375 C 24.84375 -32.554688 26.769531 -29.003906 30.625 -25.328125 C 34.445312 -21.640625 38.320312 -20.789062 42.25 -22.78125 C 44.800781 -24.050781 46.34375 -25.800781 46.875 -28.03125 C 47.40625 -30.257812 47.300781 -32.59375 46.5625 -35.03125 C 45.675781 -37.789062 44.046875 -40.078125 41.671875 -41.890625 C 39.296875 -43.648438 36.875 -44.691406 34.40625 -45.015625 C 31.882812 -45.335938 29.671875 -44.804688 27.765625 -43.421875 C 25.816406 -42.003906 24.84375 -39.523438 24.84375 -35.984375 Z M 24.84375 -35.984375 "/></g></g></g><g fill="#286181" fill-opacity="1"><g transform="translate(110.440861, 223.15269)"><g><path d="M 1.4375 -64.125 C 1.789062 -66 2.019531 -67.097656 2.125 -67.421875 C 2.550781 -69.015625 3.503906 -70.234375 4.984375 -71.078125 C 5.554688 -71.429688 6.742188 -72.015625 8.546875 -72.828125 C 12.753906 -74.671875 17.265625 -76 22.078125 -76.8125 C 27.003906 -77.625 31.925781 -77.816406 36.84375 -77.390625 C 42.007812 -76.929688 46.734375 -75.785156 51.015625 -73.953125 C 55.617188 -71.929688 59.492188 -69.1875 62.640625 -65.71875 C 64.160156 -64.050781 65.523438 -62.175781 66.734375 -60.09375 C 67.972656 -57.65625 68.835938 -55.441406 69.328125 -53.453125 C 69.929688 -51.046875 70.109375 -48.765625 69.859375 -46.609375 C 69.296875 -41.296875 66.039062 -36.625 60.09375 -32.59375 C 54.113281 -28.519531 49.070312 -25.972656 44.96875 -24.953125 C 40.46875 -23.816406 35.832031 -23.425781 31.0625 -23.78125 C 30.769531 -23.8125 30.394531 -23.773438 29.9375 -23.671875 C 29.445312 -23.535156 29.054688 -23.394531 28.765625 -23.25 C 28.347656 -23.039062 27.925781 -22.773438 27.5 -22.453125 C 26.539062 -21.742188 25.78125 -20.523438 25.21875 -18.796875 C 24.71875 -17.234375 24.398438 -15.425781 24.265625 -13.375 C 24.148438 -12.0625 24.09375 -10.148438 24.09375 -7.640625 C 24.09375 -6.722656 24.128906 -5.875 24.203125 -5.09375 C 24.242188 -4.3125 24.28125 -3.65625 24.3125 -3.125 C 24.34375 -2.488281 24.304688 -1.941406 24.203125 -1.484375 C 24.097656 -1.054688 23.882812 -0.738281 23.5625 -0.53125 C 23.25 -0.28125 22.898438 -0.140625 22.515625 -0.109375 C 21.867188 -0.0351562 21.335938 0 20.921875 0 C 19.222656 0 16.957031 -0.101562 14.125 -0.3125 C 11.257812 -0.53125 9.132812 -1.148438 7.75 -2.171875 C 7.363281 -2.421875 7.007812 -2.773438 6.6875 -3.234375 C 6.082031 -3.984375 5.484375 -5.488281 4.890625 -7.75 C 4.359375 -9.519531 3.828125 -11.835938 3.296875 -14.703125 C 2.796875 -16.929688 2.367188 -19.320312 2.015625 -21.875 C 1.585938 -24.53125 1.359375 -26.210938 1.328125 -26.921875 C 1.296875 -27.054688 1.28125 -27.265625 1.28125 -27.546875 C 1.238281 -27.648438 1.21875 -27.757812 1.21875 -27.875 C 1.1875 -27.976562 1.171875 -28.082031 1.171875 -28.1875 C 1.171875 -28.46875 1.148438 -28.679688 1.109375 -28.828125 C 1.109375 -28.929688 1.109375 -29.035156 1.109375 -29.140625 C 1.078125 -29.210938 1.0625 -29.300781 1.0625 -29.40625 C 0.914062 -30.75 0.789062 -32.128906 0.6875 -33.546875 C 0.550781 -34.929688 0.445312 -36.347656 0.375 -37.796875 C 0.15625 -40.378906 0.03125 -43.332031 0 -46.65625 C 0 -50.195312 0.101562 -53.171875 0.3125 -55.578125 C 0.53125 -58.910156 0.90625 -61.757812 1.4375 -64.125 Z M 42.625 -58.546875 C 38.695312 -60.109375 34.59375 -60.359375 30.3125 -59.296875 C 29.707031 -59.085938 29.210938 -58.910156 28.828125 -58.765625 C 27.441406 -58.128906 26.363281 -57.101562 25.59375 -55.6875 C 25.019531 -54.519531 24.753906 -52.710938 24.796875 -50.265625 C 24.828125 -47.828125 25.195312 -46.078125 25.90625 -45.015625 C 26.363281 -44.378906 26.820312 -43.898438 27.28125 -43.578125 C 28.5625 -42.484375 30.332031 -41.921875 32.59375 -41.890625 C 34.570312 -41.847656 36.710938 -41.988281 39.015625 -42.3125 C 41.285156 -42.625 43.210938 -43.472656 44.796875 -44.859375 C 45.753906 -45.742188 46.5 -46.71875 47.03125 -47.78125 C 47.5625 -48.875 47.828125 -50.039062 47.828125 -51.28125 C 47.753906 -54.007812 46.425781 -56.222656 43.84375 -57.921875 C 43.488281 -58.160156 43.082031 -58.367188 42.625 -58.546875 Z M 42.625 -58.546875 "/></g></g></g><g fill="#286181" fill-opacity="1"><g transform="translate(184.171501, 223.15269)"><g><path d="M 1.484375 -70.015625 C 2.265625 -70.898438 3.71875 -71.203125 5.84375 -70.921875 C 8.707031 -70.566406 11.734375 -70.390625 14.921875 -70.390625 C 21.503906 -70.390625 28.050781 -71.007812 34.5625 -72.25 C 41.070312 -73.488281 47.546875 -74.765625 53.984375 -76.078125 C 56.109375 -76.492188 58.234375 -77.09375 60.359375 -77.875 C 62.441406 -78.613281 64.566406 -79.128906 66.734375 -79.421875 C 69.203125 -79.734375 71.039062 -79.023438 72.25 -77.296875 C 73.625 -75.273438 74.664062 -72.019531 75.375 -67.53125 C 76.082031 -63.03125 75.960938 -59.703125 75.015625 -57.546875 C 74.367188 -56.234375 73.269531 -55.207031 71.71875 -54.46875 C 70.15625 -53.71875 68.757812 -53.078125 67.53125 -52.546875 C 65.863281 -51.847656 64.039062 -51.085938 62.0625 -50.265625 C 60.070312 -49.453125 58.515625 -48.304688 57.390625 -46.828125 C 56.222656 -45.296875 55.882812 -43.132812 56.375 -40.34375 C 56.875 -37.507812 57.226562 -35.140625 57.4375 -33.234375 C 57.863281 -29.265625 58.410156 -25.085938 59.078125 -20.703125 C 59.722656 -16.316406 59.988281 -12.160156 59.875 -8.234375 C 59.8125 -6.109375 59.125 -4.566406 57.8125 -3.609375 C 55.9375 -2.265625 53.617188 -1.328125 50.859375 -0.796875 C 48.097656 -0.265625 45.601562 0 43.375 0 C 42.445312 0 41.4375 -0.140625 40.34375 -0.421875 C 39.25 -0.671875 38.503906 -1.273438 38.109375 -2.234375 C 37.367188 -3.890625 36.804688 -5.390625 36.421875 -6.734375 C 35.078125 -11.054688 34.140625 -15.460938 33.609375 -19.953125 C 33.035156 -24.453125 32.21875 -28.894531 31.15625 -33.28125 C 30.664062 -35.476562 29.941406 -37.796875 28.984375 -40.234375 C 28.453125 -41.617188 27.25 -42.488281 25.375 -42.84375 C 23.5 -43.195312 21.957031 -43.425781 20.75 -43.53125 C 18.488281 -43.707031 16.140625 -43.847656 13.703125 -43.953125 C 11.253906 -44.023438 9.003906 -44.539062 6.953125 -45.5 C 5.148438 -46.3125 4.035156 -47.367188 3.609375 -48.671875 C 3.148438 -49.984375 2.707031 -51.507812 2.28125 -53.25 C 1.46875 -56.25 0.988281 -59.34375 0.84375 -62.53125 C 0.78125 -63.382812 0.691406 -64.640625 0.578125 -66.296875 C 0.441406 -67.929688 0.742188 -69.171875 1.484375 -70.015625 Z M 1.484375 -70.015625 "/></g></g></g><g fill="#286181" fill-opacity="1"><g transform="translate(264.431189, 223.15269)"><g><path d="M 46.921875 -19.953125 C 44.273438 -19.003906 40.613281 -18.191406 35.9375 -17.515625 C 31.226562 -16.847656 27.28125 -16.601562 24.09375 -16.78125 C 23.28125 -12.914062 22.664062 -9.425781 22.25 -6.3125 C 21.78125 -3.3125 20.75 -1.546875 19.15625 -1.015625 C 17.53125 -0.484375 15.535156 -0.425781 13.171875 -0.84375 C 11.535156 -1.132812 9.742188 -1.648438 7.796875 -2.390625 C 5.816406 -3.097656 4.171875 -3.984375 2.859375 -5.046875 C 1.765625 -5.960938 1.023438 -7.234375 0.640625 -8.859375 C 0.316406 -10.097656 0.140625 -11.410156 0.109375 -12.796875 C 0.0351562 -14.140625 0.0351562 -15.445312 0.109375 -16.71875 C 0.285156 -20.226562 0.992188 -24.6875 2.234375 -30.09375 C 3.472656 -35.507812 5.007812 -41.066406 6.84375 -46.765625 C 8.65625 -52.460938 10.65625 -57.929688 12.84375 -63.171875 C 15 -68.410156 17.101562 -72.625 19.15625 -75.8125 C 20.1875 -77.4375 21.445312 -79.082031 22.9375 -80.75 C 24.414062 -82.375 26.164062 -83.398438 28.1875 -83.828125 C 30.207031 -84.242188 32.878906 -84.1875 36.203125 -83.65625 C 39.523438 -83.125 42.019531 -82.171875 43.6875 -80.796875 C 46.59375 -79.234375 49.617188 -75.726562 52.765625 -70.28125 C 55.878906 -64.832031 58.765625 -58.832031 61.421875 -52.28125 C 64.078125 -45.707031 66.359375 -39.285156 68.265625 -33.015625 C 70.140625 -26.753906 71.289062 -22.066406 71.71875 -18.953125 C 72.144531 -15.835938 72.21875 -13.21875 71.9375 -11.09375 C 71.613281 -9.320312 70.957031 -7.992188 69.96875 -7.109375 C 68.726562 -5.910156 67.171875 -4.867188 65.296875 -3.984375 C 63.421875 -3.097656 61.6875 -2.441406 60.09375 -2.015625 C 57.757812 -1.378906 55.757812 -1.273438 54.09375 -1.703125 C 52.425781 -2.085938 51.273438 -3.75 50.640625 -6.6875 C 49.679688 -10.613281 48.441406 -15.035156 46.921875 -19.953125 Z M 26.65625 -27.125 C 32.0625 -27.050781 37.722656 -27.722656 43.640625 -29.140625 C 40.910156 -36.285156 37.832031 -43.097656 34.40625 -49.578125 C 31.46875 -42.679688 28.882812 -35.195312 26.65625 -27.125 Z M 26.65625 -27.125 "/></g></g></g><g fill="#286181" fill-opacity="1"><g transform="translate(227.065469, 251.250081)"><g><path d="M 6.609375 -8.34375 C 6.609375 -7.5 7.082031 -6.628906 8.03125 -5.734375 C 8.976562 -4.816406 9.9375 -4.601562 10.90625 -5.09375 C 11.53125 -5.394531 11.90625 -5.820312 12.03125 -6.375 C 12.164062 -6.925781 12.140625 -7.507812 11.953125 -8.125 C 11.734375 -8.800781 11.332031 -9.359375 10.75 -9.796875 C 10.164062 -10.234375 9.570312 -10.492188 8.96875 -10.578125 C 8.351562 -10.648438 7.804688 -10.515625 7.328125 -10.171875 C 6.847656 -9.816406 6.609375 -9.207031 6.609375 -8.34375 Z M 13.703125 -1.890625 C 13.304688 -1.578125 12.878906 -1.289062 12.421875 -1.03125 C 11.410156 -0.4375 10.320312 -0.0820312 9.15625 0.03125 C 7.957031 0.125 6.804688 -0.015625 5.703125 -0.390625 C 4.867188 -0.679688 4.09375 -1.085938 3.375 -1.609375 C 2.644531 -2.140625 2.082031 -2.8125 1.6875 -3.625 C 1.3125 -4.40625 1.097656 -5.328125 1.046875 -6.390625 C 0.992188 -7.921875 1.285156 -9.316406 1.921875 -10.578125 C 2.234375 -11.203125 2.582031 -11.804688 2.96875 -12.390625 C 3.351562 -12.960938 3.804688 -13.5 4.328125 -14 C 4.546875 -14.226562 4.757812 -14.441406 4.96875 -14.640625 C 6.351562 -15.867188 7.925781 -16.71875 9.6875 -17.1875 C 11.050781 -17.5625 12.367188 -17.601562 13.640625 -17.3125 C 13.472656 -21.289062 13.441406 -23.375 13.546875 -23.5625 C 13.742188 -23.90625 13.992188 -24.132812 14.296875 -24.25 C 14.640625 -24.394531 15.050781 -24.484375 15.53125 -24.515625 C 16 -24.535156 16.421875 -24.53125 16.796875 -24.5 C 17.335938 -24.4375 17.765625 -24.296875 18.078125 -24.078125 C 18.390625 -23.835938 18.476562 -22.488281 18.34375 -20.03125 C 18.289062 -15.78125 18.320312 -12.269531 18.4375 -9.5 C 18.53125 -6.726562 18.90625 -4.273438 19.5625 -2.140625 C 19.613281 -1.921875 19.679688 -1.691406 19.765625 -1.453125 C 19.847656 -1.210938 19.894531 -0.972656 19.90625 -0.734375 C 19.914062 -0.304688 19.710938 -0.00390625 19.296875 0.171875 C 18.867188 0.359375 18.378906 0.460938 17.828125 0.484375 C 17.265625 0.515625 16.71875 0.484375 16.1875 0.390625 C 15.632812 0.304688 15.242188 0.195312 15.015625 0.0625 C 14.609375 -0.164062 14.300781 -0.507812 14.09375 -0.96875 C 13.9375 -1.28125 13.804688 -1.585938 13.703125 -1.890625 Z M 13.703125 -1.890625 "/></g></g></g><g fill="#286181" fill-opacity="1"><g transform="translate(247.693399, 251.250081)"><g><path d="M 7.484375 -7.34375 C 7.128906 -7.15625 6.984375 -6.976562 7.046875 -6.8125 C 7.691406 -5.71875 8.453125 -4.984375 9.328125 -4.609375 C 10.203125 -4.234375 11.226562 -4.101562 12.40625 -4.21875 C 13.300781 -4.300781 14.375 -4.757812 15.625 -5.59375 C 16.863281 -6.40625 17.914062 -6.367188 18.78125 -5.484375 C 19.644531 -4.578125 19.488281 -3.632812 18.3125 -2.65625 C 17.113281 -1.664062 16.175781 -1.023438 15.5 -0.734375 C 14.800781 -0.441406 14.035156 -0.257812 13.203125 -0.1875 C 12.359375 -0.101562 11.523438 -0.101562 10.703125 -0.1875 C 9.585938 -0.28125 8.515625 -0.535156 7.484375 -0.953125 C 6.691406 -1.253906 5.925781 -1.671875 5.1875 -2.203125 C 4.445312 -2.710938 3.796875 -3.34375 3.234375 -4.09375 C 2.191406 -5.476562 1.492188 -7.015625 1.140625 -8.703125 C 0.796875 -11.273438 1.4375 -13.453125 3.0625 -15.234375 C 4 -16.109375 5.050781 -16.769531 6.21875 -17.21875 C 7.375 -17.65625 8.765625 -17.976562 10.390625 -18.1875 C 12.003906 -18.394531 13.640625 -18.070312 15.296875 -17.21875 C 16.960938 -16.351562 17.992188 -15.046875 18.390625 -13.296875 C 18.796875 -11.554688 18.867188 -10.363281 18.609375 -9.71875 C 18.347656 -9.0625 17.910156 -8.648438 17.296875 -8.484375 C 16.671875 -8.304688 13.398438 -7.925781 7.484375 -7.34375 Z M 11.328125 -13.734375 C 9.859375 -13.835938 8.800781 -13.59375 8.15625 -13 C 7.5 -12.394531 7.082031 -11.898438 6.90625 -11.515625 C 6.851562 -11.429688 6.894531 -11.3125 7.03125 -11.15625 C 7.15625 -11 9.519531 -11.226562 14.125 -11.84375 C 13.726562 -12.988281 12.796875 -13.617188 11.328125 -13.734375 Z M 11.328125 -13.734375 "/></g></g></g><g fill="#286181" fill-opacity="1"><g transform="translate(267.987488, 251.250081)"><g><path d="M 12.140625 -10.578125 L 13.421875 -9.6875 L 13.53125 -9.609375 C 14.5625 -8.972656 15.28125 -8.226562 15.6875 -7.375 C 16.082031 -6.507812 16.082031 -5.539062 15.6875 -4.46875 C 15.28125 -3.382812 14.546875 -2.46875 13.484375 -1.71875 C 12.785156 -1.238281 11.945312 -0.894531 10.96875 -0.6875 C 9.976562 -0.476562 8.957031 -0.394531 7.90625 -0.4375 L 7.875 -0.40625 C 6.5625 -0.488281 5.925781 -0.582031 5.96875 -0.6875 C 5.488281 -0.78125 5.085938 -0.882812 4.765625 -1 L 2.375 -2.109375 C 1.90625 -2.398438 1.5 -2.738281 1.15625 -3.125 C 1.132812 -3.132812 1.117188 -3.144531 1.109375 -3.15625 C 1.097656 -3.175781 1.09375 -3.195312 1.09375 -3.21875 C 1.0625 -3.226562 1.039062 -3.242188 1.03125 -3.265625 C 1.019531 -3.273438 1.007812 -3.285156 1 -3.296875 C 0.820312 -3.515625 0.722656 -3.75 0.703125 -4 L 0.703125 -4.109375 C 0.710938 -4.421875 0.726562 -4.804688 0.75 -5.265625 C 0.78125 -5.710938 0.859375 -6.082031 0.984375 -6.375 C 1.109375 -6.707031 1.300781 -6.8125 1.5625 -6.6875 C 1.820312 -6.5625 2.039062 -6.421875 2.21875 -6.265625 C 2.238281 -6.242188 2.257812 -6.226562 2.28125 -6.21875 C 2.300781 -6.207031 2.320312 -6.195312 2.34375 -6.1875 C 2.769531 -5.800781 3.265625 -5.46875 3.828125 -5.1875 C 5.097656 -4.582031 6.285156 -4.398438 7.390625 -4.640625 C 7.453125 -4.660156 7.546875 -4.707031 7.671875 -4.78125 C 8.066406 -5.007812 8.148438 -5.328125 7.921875 -5.734375 C 7.910156 -5.742188 7.898438 -5.757812 7.890625 -5.78125 L 7.859375 -5.84375 C 7.753906 -5.976562 7.023438 -6.507812 5.671875 -7.4375 C 3.742188 -8.78125 2.640625 -9.671875 2.359375 -10.109375 C 1.660156 -11.140625 1.453125 -12.171875 1.734375 -13.203125 C 2.015625 -14.222656 2.617188 -15.117188 3.546875 -15.890625 C 5.203125 -17.242188 7.835938 -17.738281 11.453125 -17.375 C 11.898438 -17.238281 12.296875 -17.101562 12.640625 -16.96875 C 12.753906 -16.914062 12.941406 -16.828125 13.203125 -16.703125 C 13.429688 -16.566406 13.707031 -16.421875 14.03125 -16.265625 L 14.515625 -15.703125 C 14.546875 -15.671875 14.570312 -15.628906 14.59375 -15.578125 C 14.820312 -15.296875 15 -14.910156 15.125 -14.421875 C 15.238281 -13.929688 15.132812 -13.539062 14.8125 -13.25 C 14.78125 -13.21875 14.753906 -13.203125 14.734375 -13.203125 C 14.453125 -12.984375 14.054688 -12.9375 13.546875 -13.0625 C 12.992188 -13.207031 12.445312 -13.332031 11.90625 -13.4375 L 11.015625 -13.671875 C 10.566406 -13.710938 10.082031 -13.734375 9.5625 -13.734375 C 8.488281 -13.378906 8.738281 -12.691406 10.3125 -11.671875 C 10.4375 -11.546875 11.046875 -11.179688 12.140625 -10.578125 Z M 12.140625 -10.578125 "/></g></g></g><g fill="#286181" fill-opacity="1"><g transform="translate(284.697164, 251.250081)"><g><path d="M 2.78125 -17.40625 C 3.09375 -17.46875 3.429688 -17.5 3.796875 -17.5 C 3.960938 -17.5 4.117188 -17.492188 4.265625 -17.484375 C 4.992188 -17.421875 5.515625 -17.367188 5.828125 -17.328125 C 6.273438 -17.242188 6.632812 -17.164062 6.90625 -17.09375 C 6.96875 -17.082031 7.050781 -17.046875 7.15625 -16.984375 C 7.195312 -16.953125 7.257812 -16.894531 7.34375 -16.8125 L 7.5625 -16.625 C 7.59375 -16.582031 7.65625 -16.507812 7.75 -16.40625 C 7.78125 -16.351562 7.816406 -16.265625 7.859375 -16.140625 L 7.953125 -15.71875 C 7.953125 -15.625 7.976562 -15.484375 8.03125 -15.296875 C 8.039062 -15.253906 8.046875 -15.179688 8.046875 -15.078125 C 8.015625 -14.191406 7.910156 -12.914062 7.734375 -11.25 C 7.648438 -10.457031 7.609375 -9.625 7.609375 -8.75 C 7.617188 -6.75 7.796875 -4.632812 8.140625 -2.40625 C 8.109375 -2.039062 8.054688 -1.691406 7.984375 -1.359375 C 7.898438 -1.015625 7.816406 -0.78125 7.734375 -0.65625 C 7.585938 -0.4375 7.28125 -0.28125 6.8125 -0.1875 C 6.601562 -0.144531 6.367188 -0.125 6.109375 -0.125 C 5.859375 -0.113281 5.597656 -0.113281 5.328125 -0.125 C 4.847656 -0.132812 4.328125 -0.1875 3.765625 -0.28125 C 3.335938 -0.34375 2.972656 -0.421875 2.671875 -0.515625 L 2.453125 -0.609375 C 2.410156 -0.640625 2.335938 -0.703125 2.234375 -0.796875 C 2.179688 -0.828125 2.113281 -0.890625 2.03125 -0.984375 C 2.03125 -0.972656 1.972656 -1.039062 1.859375 -1.1875 C 1.816406 -1.226562 1.773438 -1.316406 1.734375 -1.453125 C 1.691406 -1.578125 1.660156 -1.71875 1.640625 -1.875 C 1.597656 -2.125 1.441406 -4.125 1.171875 -7.875 C 1.128906 -8.53125 1.109375 -9.164062 1.109375 -9.78125 L 1.109375 -10.046875 C 1.109375 -10.066406 1.109375 -10.097656 1.109375 -10.140625 C 1.109375 -12.890625 1.664062 -15.3125 2.78125 -17.40625 Z M 7.21875 -23.828125 C 7.84375 -23.242188 8.15625 -22.535156 8.15625 -21.703125 C 8.15625 -20.878906 7.84375 -20.175781 7.21875 -19.59375 C 6.601562 -19.007812 5.851562 -18.71875 4.96875 -18.71875 C 4.101562 -18.71875 3.359375 -19.007812 2.734375 -19.59375 C 2.117188 -20.175781 1.8125 -20.878906 1.8125 -21.703125 C 1.8125 -22.535156 2.117188 -23.242188 2.734375 -23.828125 C 3.359375 -24.398438 4.101562 -24.6875 4.96875 -24.6875 C 5.851562 -24.6875 6.601562 -24.398438 7.21875 -23.828125 Z M 7.21875 -23.828125 "/></g></g></g><g fill="#286181" fill-opacity="1"><g transform="translate(293.816327, 251.250081)"><g><path d="M 9.078125 -7.765625 C 9.691406 -7.847656 10.285156 -8.117188 10.859375 -8.578125 C 11.429688 -9.015625 11.820312 -9.578125 12.03125 -10.265625 C 12.195312 -10.867188 12.210938 -11.445312 12.078125 -12 C 11.929688 -12.539062 11.546875 -12.960938 10.921875 -13.265625 C 9.941406 -13.734375 8.988281 -13.503906 8.0625 -12.578125 C 7.132812 -11.648438 6.675781 -10.765625 6.6875 -9.921875 C 6.707031 -9.054688 6.960938 -8.460938 7.453125 -8.140625 C 7.929688 -7.796875 8.472656 -7.671875 9.078125 -7.765625 Z M 13 -2.71875 C 12.164062 -2.050781 10.75 -1.820312 8.75 -2.03125 C 6.75 -2.25 5.15625 -2.929688 3.96875 -4.078125 C 2.789062 -5.222656 2.015625 -6.410156 1.640625 -7.640625 C 1.265625 -8.867188 1.09375 -10.132812 1.125 -11.4375 C 1.144531 -12.726562 1.34375 -13.773438 1.71875 -14.578125 C 2.082031 -15.390625 2.625 -16.066406 3.34375 -16.609375 C 4.039062 -17.140625 4.8125 -17.5625 5.65625 -17.875 C 6.75 -18.269531 7.890625 -18.429688 9.078125 -18.359375 C 10.253906 -18.265625 11.351562 -17.929688 12.375 -17.359375 C 12.832031 -17.097656 13.265625 -16.816406 13.671875 -16.515625 C 13.765625 -16.816406 13.878906 -17.132812 14.015625 -17.46875 C 14.234375 -17.90625 14.539062 -18.25 14.9375 -18.5 C 15.15625 -18.625 15.535156 -18.742188 16.078125 -18.859375 C 16.617188 -18.953125 17.171875 -18.988281 17.734375 -18.96875 C 18.273438 -18.957031 18.765625 -18.863281 19.203125 -18.6875 C 19.628906 -18.519531 19.832031 -18.21875 19.8125 -17.78125 C 19.8125 -17.550781 19.78125 -17.316406 19.71875 -17.078125 C 19.632812 -16.828125 19.5625 -16.59375 19.5 -16.375 C 18.882812 -14.226562 18.550781 -11.773438 18.5 -9.015625 C 18.457031 -6.503906 18.460938 -4.332031 18.515625 -2.5 C 18.578125 -0.644531 18.207031 0.9375 17.40625 2.25 C 16.613281 3.570312 15.800781 4.429688 14.96875 4.828125 C 14.132812 5.242188 13.28125 5.546875 12.40625 5.734375 C 11.289062 5.972656 10.15625 6.054688 9 5.984375 C 8.132812 5.941406 7.269531 5.820312 6.40625 5.625 C 5.539062 5.425781 4.710938 5.050781 3.921875 4.5 C 3.628906 4.300781 3.34375 4.070312 3.0625 3.8125 C 2.644531 3.4375 2.113281 2.742188 1.46875 1.734375 C 0.8125 0.734375 0.84375 0.078125 1.5625 -0.234375 C 3.914062 -1.109375 5.40625 -1.070312 6.03125 -0.125 C 6.632812 0.820312 7.382812 1.425781 8.28125 1.6875 C 9.15625 1.945312 10.097656 1.910156 11.109375 1.578125 C 12.097656 1.253906 12.675781 0.484375 12.84375 -0.734375 C 13 -1.953125 13.050781 -2.613281 13 -2.71875 Z M 13 -2.71875 "/></g></g></g><g fill="#286181" fill-opacity="1"><g transform="translate(314.286126, 251.250081)"><g><path d="M 7.765625 -15.6875 C 8.359375 -16.144531 9.175781 -16.425781 10.21875 -16.53125 C 11.25 -16.632812 12.335938 -16.3125 13.484375 -15.5625 C 14.679688 -14.769531 15.597656 -13.71875 16.234375 -12.40625 C 16.859375 -11.082031 17.296875 -9.753906 17.546875 -8.421875 C 17.722656 -7.484375 17.875 -6.179688 18 -4.515625 C 18.113281 -2.847656 17.945312 -1.566406 17.5 -0.671875 C 17.34375 -0.347656 17.101562 -0.160156 16.78125 -0.109375 C 16.226562 -0.015625 15.5625 -0.0859375 14.78125 -0.328125 C 13.988281 -0.578125 13.445312 -0.84375 13.15625 -1.125 C 13.019531 -1.226562 12.925781 -1.359375 12.875 -1.515625 C 12.78125 -1.722656 12.753906 -1.957031 12.796875 -2.21875 C 12.828125 -2.46875 12.867188 -2.707031 12.921875 -2.9375 C 13.066406 -3.78125 13.101562 -4.675781 13.03125 -5.625 C 12.96875 -6.5625 12.828125 -7.429688 12.609375 -8.234375 C 12.472656 -8.785156 12.296875 -9.253906 12.078125 -9.640625 C 11.367188 -10.796875 10.550781 -11.328125 9.625 -11.234375 C 8.695312 -11.117188 8.03125 -10.128906 7.625 -8.265625 C 7.445312 -7.148438 7.578125 -5.519531 8.015625 -3.375 C 8.085938 -3.09375 8.15625 -2.800781 8.21875 -2.5 C 8.28125 -2.175781 8.3125 -1.867188 8.3125 -1.578125 C 8.28125 -1.023438 8.007812 -0.632812 7.5 -0.40625 C 7 -0.164062 6.425781 -0.03125 5.78125 0 C 5.132812 0.03125 4.503906 -0.0078125 3.890625 -0.125 C 3.253906 -0.238281 2.8125 -0.378906 2.5625 -0.546875 C 2.101562 -0.835938 1.78125 -1.269531 1.59375 -1.84375 C 1.394531 -2.414062 1.242188 -2.976562 1.140625 -3.53125 C 0.953125 -4.582031 0.847656 -5.925781 0.828125 -7.5625 C 0.785156 -9.175781 0.78125 -10.335938 0.8125 -11.046875 C 0.832031 -11.753906 0.890625 -12.570312 0.984375 -13.5 C 1.066406 -14.414062 1.390625 -15.566406 1.953125 -16.953125 C 2.222656 -17.378906 2.53125 -17.664062 2.875 -17.8125 C 3.300781 -18 3.789062 -18.113281 4.34375 -18.15625 C 4.894531 -18.1875 5.378906 -18.175781 5.796875 -18.125 C 6.429688 -18.0625 6.914062 -17.882812 7.25 -17.59375 C 7.59375 -17.300781 7.671875 -16.722656 7.484375 -15.859375 Z M 7.765625 -15.6875 "/></g></g></g><g fill="#286181" fill-opacity="1"><g transform="translate(332.963717, 251.250081)"><g><path d="M 6.46875 -2.921875 C 6.46875 -2.023438 6.117188 -1.296875 5.421875 -0.734375 C 4.828125 -0.242188 4.097656 0 3.234375 0 C 2.210938 0 1.40625 -0.3125 0.8125 -0.9375 C 0.269531 -1.46875 0 -2.125 0 -2.90625 C 0 -3.75 0.296875 -4.445312 0.890625 -5 C 1.484375 -5.582031 2.253906 -5.875 3.203125 -5.875 C 4.203125 -5.875 5.015625 -5.546875 5.640625 -4.890625 C 6.191406 -4.285156 6.46875 -3.628906 6.46875 -2.921875 Z M 6.46875 -2.921875 "/></g></g></g></svg>